<svg xmlns="http://www.w3.org/2000/svg" width="107.002" height="104.071" viewBox="0 0 107.002 104.071">
  <g id="Group_56324" data-name="Group 56324" transform="translate(-92.198 -317.779)">
    <path id="Path_60199" data-name="Path 60199" d="M201.946,369.009l-38.637-37.1-15.172,14.359,41.45,39.291s4.008,9.818,0,15.225a42.617,42.617,0,0,1-7.523,7.5s-7.942-6.22-9.67-9.415c-.69-1.275,2.1-3.563,2.1-3.563l2.408-1.9L133.884,352.1a19.882,19.882,0,0,1-.876-6.2c.114-2.3,1.326-4.4,2.226-6.075,1.3-2.434,10.258-12.113,17-17.367A43.834,43.834,0,0,1,158,318.624s8.547-1.9,11.31,0S214.2,361.055,214.2,361.055s5.071,8.318.62,15.542c-1.331,2.16-4.032,3.8-6.239,5.91-4.783,4.585-9.158,8.756-9.158,8.756s-1.5-.657-3.466-5.108c-1.032-2.332-1.246-7.347,1.022-11.31A24.355,24.355,0,0,1,201.946,369.009Z" transform="translate(-17.455 0)" fill="#2f91c3"/>
    <path id="Path_60200" data-name="Path 60200" d="M110.464,365.9c2.244-5.929-17.8,17.95-17.8,17.95s-1.605,10.216,1.168,12.04,47.9,46.061,47.9,46.061A17.1,17.1,0,0,0,151,440.269c4.378-2.335,9.34-8.683,9.34-8.683l-10.07-9.851-4.305,4.524-39.2-37.816,10.143-9.194S108.221,371.824,110.464,365.9Z" transform="translate(0 -20.182)" fill="#afaebe"/>
    <path id="Path_60201" data-name="Path 60201" d="M99.92,437.866s.11,3.309.281,7.746c.075,1.971-.334,4.5.73,6.792,1.456,3.142,2.127,5.975,3.929,8.083,1.9,2.22,4.582,3.413,7.8,4.883.851.391,1.676,1.281,2.638,1.123,2.033-.336,4.418.013,6.736,0,4.514-.027,8.476,0,8.476,0l-4.434-4.434a32.341,32.341,0,0,1-6.567,0,19.815,19.815,0,0,1-5.5-1.572c-4.589-1.544-4.154-1.7-6.287-4.6s-1.684-3.48-2.245-7.016a26.139,26.139,0,0,1,0-7.128Z" transform="translate(-3.83 -51.303)" fill="#2f91c3"/>
    <path id="Path_60202" data-name="Path 60202" d="M0,0S.11,3.309.281,7.746c.075,1.971-.334,4.5.73,6.792,1.456,3.142,2.127,5.975,3.929,8.083,1.9,2.22,4.582,3.413,7.8,4.883.851.391,1.676,1.282,2.638,1.123,2.033-.336,4.418.013,6.736,0,4.514-.027,8.476,0,8.476,0l-4.434-4.434a32.339,32.339,0,0,1-6.567,0,19.816,19.816,0,0,1-5.5-1.572c-4.589-1.544-4.154-1.7-6.287-4.6S6.118,14.538,5.557,11a26.139,26.139,0,0,1,0-7.128Z" transform="translate(125.879 323.15) rotate(90)" fill="#2f91c3"/>
    <path id="Path_60203" data-name="Path 60203" d="M0,28.645S.11,25.336.281,20.9c.075-1.971-.334-4.5.73-6.792,1.456-3.142,2.127-5.975,3.929-8.083,1.9-2.22,4.582-3.413,7.8-4.883C13.593.75,14.418-.14,15.38.019c2.033.336,4.418-.013,6.736,0,4.514.027,8.476,0,8.476,0L26.156,4.453a32.338,32.338,0,0,0-6.567,0,19.815,19.815,0,0,0-5.5,1.572C9.5,7.568,9.935,7.723,7.8,10.627s-1.684,3.48-2.245,7.016a26.139,26.139,0,0,0,0,7.128Z" transform="translate(194.536 323.15) rotate(90)" fill="#afaebe"/>
    <path id="Path_60204" data-name="Path 60204" d="M0,0S.11,3.309.281,7.746c.075,1.971-.334,4.5.73,6.792,1.456,3.142,2.127,5.975,3.929,8.083,1.9,2.22,4.582,3.413,7.8,4.883.851.391,1.676,1.282,2.638,1.123,2.033-.336,4.418.013,6.736,0,4.514-.027,8.476,0,8.476,0l-4.434-4.434a32.338,32.338,0,0,1-6.567,0,19.815,19.815,0,0,1-5.5-1.572c-4.589-1.544-4.154-1.7-6.287-4.6S6.118,14.538,5.557,11a26.139,26.139,0,0,1,0-7.128Z" transform="translate(165.891 416.009) rotate(-90)" fill="#2f91c3"/>
  </g>
</svg>
